<?xml version="1.0" encoding="UTF-8"?>
<svg version="1.1" xmlns="http://www.w3.org/2000/svg" width="512" height="512">
<path d="M0 0 C3.68827045 1.66595791 6.86520734 3.9456293 10.125 6.3125 C11.03536011 6.96847168 11.03536011 6.96847168 11.96411133 7.63769531 C13.28410516 8.58940771 14.60316081 9.54242238 15.92138672 10.49658203 C18.0293774 12.02124807 20.14120418 13.54046434 22.25390625 15.05859375 C30.84265183 21.23694944 39.38120889 27.47994143 47.89111328 33.76635742 C56.2143588 39.90873208 64.60399195 45.95766919 73 52 C83.00550398 59.20063208 92.97688478 66.44250786 102.89208984 73.76708984 C111.21502749 79.90919634 119.60432215 85.95790683 128 92 C140.39335564 100.91909037 152.73850306 109.90013489 165 119 C166.03428949 119.50629047 166.03428949 119.50629047 167.08947372 120.02280903 C170.14547363 123.18544306 169.53597131 126.89320663 169.48101807 131.05448914 C169.48443577 131.9921859 169.48785347 132.92988267 169.49137473 133.89599448 C169.49798603 137.0516566 169.47592366 140.20647624 169.45410156 143.36206055 C169.45297379 145.61863179 169.45360557 147.87520451 169.45587158 150.1317749 C169.45702239 156.26995896 169.43345359 162.40783232 169.40557575 168.54594398 C169.38062319 174.95613528 169.37822495 181.36633318 169.37347412 187.77656555 C169.36244181 198.53966691 169.33743261 209.30263202 169.30175781 220.06567383 C169.2650488 231.15225655 169.23673164 242.23880824 169.21972656 253.32543945 C169.21867567 254.00867327 169.21762477 254.69190709 169.21654204 255.39584496 C169.21132193 258.82338518 169.20626709 262.25092562 169.20129442 265.6784662 C169.15981901 294.11905878 169.08825906 322.55951738 169 351 C158.44 351 147.88 351 137 351 C136.99191315 348.70593704 136.98382629 346.41187408 136.97549438 344.04829407 C136.89845694 322.46121232 136.81051205 300.8741948 136.71247292 279.28719807 C136.66232966 268.1883056 136.6158869 257.08942058 136.578125 245.99047852 C136.54520625 236.31778076 136.50537563 226.64514052 136.45720994 216.97250623 C136.43194385 211.84990667 136.41016284 206.72734527 136.39665604 201.60470009 C136.38383676 196.78420042 136.36178367 191.96383163 136.33261681 187.14340401 C136.32354001 185.37331811 136.31785056 183.60321114 136.31578636 181.83310318 C136.31246456 179.41746122 136.29698942 177.0021905 136.2784729 174.58662415 C136.281375 173.53456873 136.281375 173.53456873 136.28433573 172.46125966 C136.23968066 168.56788138 136.03060499 165.372337 134 162 C130.71903617 160.1692788 127.89784126 159.74947288 124.18041992 159.74603271 C123.23838715 159.74039307 122.29635437 159.73475342 121.32577515 159.72894287 C119.79359848 159.73501556 119.79359848 159.73501556 118.23046875 159.74121094 C117.14537018 159.7377063 116.06027161 159.73420166 114.94229126 159.73059082 C111.35729567 159.72179204 107.77249759 159.72761625 104.1875 159.734375 C101.69555626 159.73302782 99.20361277 159.73108685 96.71166992 159.72857666 C90.82100706 159.72525029 84.93041582 159.73224759 79.03976345 159.7428782 C74.34451384 159.75038735 69.64934806 159.74773112 64.95410156 159.73925781 C58.47740243 159.72767023 52.00078433 159.72584435 45.52407837 159.73236847 C43.05530783 159.73370312 40.58653385 159.7320637 38.11776733 159.72740936 C34.66826215 159.72233334 31.21901706 159.73006983 27.76953125 159.74121094 C26.74808014 159.73716248 25.72662903 159.73311401 24.67422485 159.72894287 C23.26117569 159.73740234 23.26117569 159.73740234 21.81958008 159.74603271 C21.00475662 159.74678677 20.18993317 159.74754082 19.35041809 159.74831772 C16.50130549 160.0534001 14.51074285 160.59904881 12 162 C9.6147953 165.96124019 9.70911179 170.08588945 9.7215271 174.58662415 C9.7128385 175.72009278 9.7128385 175.72009278 9.70397437 176.87645978 C9.68699434 179.40376732 9.6840996 181.93089202 9.68115234 184.45825195 C9.67185279 186.27177884 9.66168407 188.08530144 9.65071106 189.89881897 C9.62340012 194.81984447 9.60825837 199.74084132 9.59528303 204.66192269 C9.57965732 209.80558831 9.5528653 214.94919538 9.5272522 220.09281921 C9.48045453 229.8320217 9.44371518 239.57123519 9.41057932 249.31049269 C9.36522007 262.47184702 9.30434398 275.63312896 9.24433136 288.7944231 C9.15019315 309.52957912 9.07680469 330.26475576 9 351 C-49.08 351 -107.16 351 -167 351 C-167.64484855 294.05629076 -167.64484855 294.05629076 -167.78125 270.18359375 C-167.8126663 264.72899648 -167.84490031 259.27440598 -167.87890625 253.81982422 C-167.88312623 253.13623309 -167.88734621 252.45264197 -167.89169407 251.74833596 C-167.96118116 240.72897619 -168.0872601 229.71095976 -168.23444474 218.69239512 C-168.38436518 207.37415433 -168.47180347 196.05690534 -168.50541592 184.73760867 C-168.52624811 178.38327638 -168.57506753 172.03198331 -168.69168091 165.67862701 C-168.80066153 159.69236615 -168.83371752 153.71038141 -168.8097229 147.72322273 C-168.81410884 145.53172324 -168.84573334 143.3400743 -168.9072876 141.14943504 C-169.33756405 125.04016347 -169.33756405 125.04016347 -165.4209671 119.94635868 C-161.64855224 116.30509673 -157.43645751 113.58354276 -152.86446667 111.05228662 C-150.4724171 109.7022374 -148.31111687 108.1100058 -146.1328125 106.44140625 C-144.79796366 105.48025709 -143.46204737 104.52058844 -142.125 103.5625 C-140.60546331 102.46875756 -139.08593222 101.37500733 -137.56640625 100.28125 C-136.04428558 99.18747948 -134.52215023 98.09372938 -133 97 C-123.79806478 90.38053691 -114.61757042 83.73535157 -105.5 77 C-95.64592179 69.72057378 -85.71425666 62.55169676 -75.77050781 55.39550781 C-67.31406964 49.3076125 -58.88111091 43.19131259 -50.5 37 C-40.57162386 29.66568826 -30.5660067 22.44126496 -20.54492188 15.234375 C-18.89033805 14.04421306 -17.23611756 12.85354583 -15.58227539 11.66235352 C-14.03022464 10.54447824 -12.47737646 9.42770895 -10.92358398 8.31225586 C-7.20253214 5.6315806 -3.54937353 2.90783647 0 0 Z M-133 162 C-136.04824041 166.52442089 -135.28742729 172.49700225 -135.2746582 177.75366211 C-135.27976913 178.83715439 -135.28488007 179.92064667 -135.29014587 181.03697205 C-135.30404143 184.6171522 -135.30308515 188.19713984 -135.30078125 191.77734375 C-135.30466806 194.26689221 -135.3090027 196.75644 -135.31376648 199.24598694 C-135.32122853 204.46373647 -135.32093739 209.68141833 -135.31567383 214.89916992 C-135.31030158 220.25633954 -135.31734794 225.6133202 -135.33618164 230.97045898 C-135.35863738 237.44069446 -135.3664347 243.91077209 -135.36250877 250.38104439 C-135.36302222 252.84620271 -135.36826435 255.31136475 -135.37832069 257.77650261 C-135.39065704 261.2234993 -135.38390981 264.66995532 -135.37231445 268.11694336 C-135.37995819 269.13479919 -135.38760193 270.15265503 -135.39547729 271.20135498 C-135.35629858 276.47079314 -135.22836852 280.58874893 -132 285 C-127.70566863 287.76718296 -122.65977454 287.28873438 -117.71508789 287.2746582 C-116.32393517 287.2823246 -116.32393517 287.2823246 -114.90467834 287.29014587 C-111.84393837 287.30402728 -108.78342393 287.30308623 -105.72265625 287.30078125 C-103.59183163 287.30466886 -101.46100778 287.30900366 -99.33018494 287.31376648 C-94.86568692 287.32122549 -90.40126799 287.32093962 -85.93676758 287.31567383 C-80.21914077 287.30987842 -74.50183782 287.32681363 -68.78426456 287.3500185 C-64.38417166 287.36475858 -59.98415672 287.36562718 -55.5840435 287.36250877 C-53.47614335 287.3630218 -51.36823881 287.36825613 -49.26036263 287.37832069 C-46.31146386 287.39067343 -43.3631955 287.38390028 -40.41430664 287.37231445 C-39.54606262 287.37995819 -38.6778186 287.38760193 -37.78326416 287.39547729 C-32.83234421 287.35253946 -29.18152193 286.94949488 -25 284 C-21.95175959 279.47557911 -22.71257271 273.50299775 -22.7253418 268.24633789 C-22.7176754 266.62109947 -22.7176754 266.62109947 -22.70985413 264.96302795 C-22.69595857 261.3828478 -22.69691485 257.80286016 -22.69921875 254.22265625 C-22.69533194 251.73310779 -22.6909973 249.24356 -22.68623352 246.75401306 C-22.67877147 241.53626353 -22.67906261 236.31858167 -22.68432617 231.10083008 C-22.68969842 225.74366046 -22.68265206 220.3866798 -22.66381836 215.02954102 C-22.64136262 208.55930554 -22.6335653 202.08922791 -22.63749123 195.61895561 C-22.63697778 193.15379729 -22.63173565 190.68863525 -22.62167931 188.22349739 C-22.60934296 184.7765007 -22.61609019 181.33004468 -22.62768555 177.88305664 C-22.62004181 176.86520081 -22.61239807 175.84734497 -22.60452271 174.79864502 C-22.64370142 169.52920686 -22.77163148 165.41125107 -26 161 C-30.29433137 158.23281704 -35.34022546 158.71126562 -40.28491211 158.7253418 C-41.67606483 158.7176754 -41.67606483 158.7176754 -43.09532166 158.70985413 C-46.15606163 158.69597272 -49.21657607 158.69691377 -52.27734375 158.69921875 C-54.40816837 158.69533114 -56.53899222 158.69099634 -58.66981506 158.68623352 C-63.13431308 158.67877451 -67.59873201 158.67906038 -72.06323242 158.68432617 C-77.78085923 158.69012158 -83.49816218 158.67318637 -89.21573544 158.6499815 C-93.61582834 158.63524142 -98.01584328 158.63437282 -102.4159565 158.63749123 C-104.52385665 158.6369782 -106.63176119 158.63174387 -108.73963737 158.62167931 C-111.68853614 158.60932657 -114.6368045 158.61609972 -117.58569336 158.62768555 C-118.88805939 158.61621994 -118.88805939 158.61621994 -120.21673584 158.60452271 C-125.16765579 158.64746054 -128.81847807 159.05050512 -133 162 Z " fill="black" transform="translate(255,113)"/>
<path d="M0 0 C31.68 0 63.36 0 96 0 C96 58.08 96 116.16 96 176 C64.32 176 32.64 176 0 176 C0 117.92 0 59.84 0 0 Z M18.625 74.625 C16.51293494 77.71186432 16.38804855 79.3282913 17 83 C18.5 85.5 18.5 85.5 21 87 C24.6717087 87.61195145 26.28813568 87.48706506 29.375 85.375 C31.48706506 82.28813568 31.61195145 80.6717087 31 77 C29.5 74.5 29.5 74.5 27 73 C23.3282913 72.38804855 21.71186432 72.51293494 18.625 74.625 Z " fill="#000000" transform="translate(280,288)"/>
<path d="M0 0 C3.65919421 1.65765906 6.82319013 3.90424474 10.0625 6.25 C10.96790527 6.90101685 10.96790527 6.90101685 11.89160156 7.56518555 C17.85759971 11.86854078 23.77216831 16.24200447 29.68774414 20.61425781 C35.10015914 24.61148278 40.53880119 28.56973725 46 32.5 C53.00219604 37.54001692 59.95613336 42.64213444 66.89453125 47.76953125 C72.23857821 51.71415511 77.60918549 55.61958115 83 59.5 C93.19356463 66.84003533 103.29401627 74.30454606 113.39550781 81.77050781 C122.63804661 88.59965419 131.9038828 95.3920693 141.23071289 102.10571289 C146.68106982 106.03398912 152.09680823 110.00715155 157.5 114 C165.96180835 120.25249068 174.48111121 126.42216512 183.01855469 132.57080078 C187.35615226 135.69947207 191.67842467 138.84924794 196 142 C194.82972672 145.51081985 193.92018154 146.04938227 190.96484375 148.13671875 C190.15595703 148.71357422 189.34707031 149.29042969 188.51367188 149.88476562 C187.66353516 150.47966797 186.81339844 151.07457031 185.9375 151.6875 C184.65649414 152.59725586 184.65649414 152.59725586 183.34960938 153.52539062 C181.23775639 155.02374442 179.1211778 156.51489073 177 158 C170.87553736 153.99564793 164.92934638 149.80907054 159.0625 145.4375 C152.73770409 140.74988572 146.39104464 136.09689384 140 131.5 C133.80328925 127.04002488 127.6402366 122.53740131 121.5 118 C112.38251634 111.26446941 103.20059231 104.62136363 94 98 C83.99449602 90.79936792 74.02311522 83.55749214 64.10791016 76.23291016 C56.5249393 70.63687947 48.88708831 65.11881488 41.23828125 59.61328125 C38.22113378 57.43861824 35.20984904 55.25590534 32.19848633 53.07324219 C29.96249558 51.45558341 27.72186112 49.84453817 25.48046875 48.234375 C22.40088248 46.02047888 19.34579245 43.7768032 16.30078125 41.515625 C14.78406145 40.40596662 13.26714157 39.29658166 11.75 38.1875 C11.05898193 37.66534912 10.36796387 37.14319824 9.65600586 36.60522461 C6.7316537 34.48689544 4.55857606 33.12073389 1 32.3515625 C-3.35195846 33.29222019 -6.23547345 35.53173396 -9.75 38.1875 C-10.48879395 38.72777832 -11.22758789 39.26805664 -11.98876953 39.82470703 C-13.54963075 40.96696916 -15.10636601 42.1148881 -16.65917969 43.26806641 C-19.63596876 45.47054259 -22.64512223 47.62594943 -25.65527344 49.7824707 C-33.45109718 55.37553695 -41.17459752 61.06614905 -48.8918457 66.7668457 C-57.95146136 73.45284391 -67.09060027 80.0275323 -76.22949219 86.60449219 C-84.68593036 92.6923875 -93.11888909 98.80868741 -101.5 105 C-111.35407821 112.27942622 -121.28574334 119.44830324 -131.22949219 126.60449219 C-133.46610139 128.21465505 -135.70202933 129.82575686 -137.9375 131.4375 C-138.67097656 131.96617676 -139.40445313 132.49485352 -140.16015625 133.03955078 C-146.60196005 137.69243306 -152.99680247 142.40813143 -159.36889648 147.15600586 C-164.47266976 150.94036793 -169.682173 154.52304981 -175 158 C-178.17432173 155.71878951 -181.33807515 153.42335505 -184.5 151.125 C-185.40621094 150.47402344 -186.31242187 149.82304687 -187.24609375 149.15234375 C-188.10332031 148.52714844 -188.96054688 147.90195313 -189.84375 147.2578125 C-190.63974609 146.6817627 -191.43574219 146.10571289 -192.25585938 145.51220703 C-193.11920898 144.76366455 -193.11920898 144.76366455 -194 144 C-194 143.34 -194 142.68 -194 142 C-192.64916992 140.80175781 -192.64916992 140.80175781 -190.73046875 139.453125 C-190.01632813 138.94523438 -189.3021875 138.43734375 -188.56640625 137.9140625 C-187.78136719 137.36492187 -186.99632812 136.81578125 -186.1875 136.25 C-184.52407177 135.0686481 -182.86133297 133.88632495 -181.19921875 132.703125 C-179.90636963 131.78563477 -179.90636963 131.78563477 -178.58740234 130.84960938 C-174.52452993 127.94525748 -170.51274659 124.97302176 -166.5 122 C-160.3604544 117.46166596 -154.19644216 112.96032616 -148 108.5 C-138.61219227 101.74016251 -129.30303505 94.87582656 -120 88 C-109.9598876 80.57940327 -99.90202492 73.18803961 -89.76928711 65.89428711 C-84.31893063 61.9660112 -78.90316826 57.99287964 -73.5 54 C-66.6229644 48.91794922 -59.70966917 43.88997203 -52.76953125 38.89453125 C-46.5212469 34.39096853 -40.32062388 29.82477697 -34.12744141 25.24584961 C-28.57225433 21.14384819 -22.98224804 17.09296512 -17.375 13.0625 C-11.48646139 8.82825172 -5.65392265 4.54628283 0 0 Z " fill="#000000" transform="translate(255,65)"/>
<path d="M0 0 C15.84 0 31.68 0 48 0 C48 25.08 48 50.16 48 76 C40.13316103 71.50466345 40.13316103 71.50466345 37.44921875 69.44140625 C36.84207031 68.97943848 36.23492187 68.5174707 35.609375 68.04150391 C34.65804687 67.30939697 34.65804687 67.30939697 33.6875 66.5625 C26.96238562 61.45007316 20.15640106 56.46453275 13.29174805 51.54125977 C12.58703369 51.03522217 11.88231934 50.52918457 11.15625 50.0078125 C10.54587891 49.57098145 9.93550781 49.13415039 9.30664062 48.68408203 C8.16485352 47.85046143 8.16485352 47.85046143 7 47 C6.33323242 46.60809479 5.66646484 46.21618958 4.97949219 45.81240845 C-0.60862985 42.25476225 -0.60862985 42.25476225 -1.66003418 38.88388062 C-1.82933371 36.36265905 -1.74685194 33.96518499 -1.5625 31.4453125 C-1.53478516 30.64536865 -1.50707031 29.8454248 -1.47851562 29.02124023 C-1.36374338 26.05375882 -1.17770242 23.0893786 -1 20.125 C-0.67 13.48375 -0.34 6.8425 0 0 Z " fill="#000000" transform="translate(336,64)"/>
<path d="M0 0 C6.24601419 0 7.42788179 0.22303279 12 4 C16.77541717 9.7065808 16.31349613 13.91898398 15.75585938 20.8984375 C15.57312217 24.78763684 15.58006466 26.52996711 18.2265625 29.4921875 C20.94429677 30.96971627 22.39956284 31.45667826 25.4375 31.5 C29.95101655 31.83738911 32.50054619 32.98884207 36 36 C39.60084056 40.28208067 41.25251835 44.39198828 41 50 C39.80328454 56.22522179 37.10671417 59.41443473 32 63 C22.45478596 67.77260702 10.67187373 64 0 64 C0 42.88 0 21.76 0 0 Z " fill="#000000" transform="translate(440,400)"/>
<path d="M0 0 C0 21.12 0 42.24 0 64 C-30 64 -30 64 -36 60 C-39.62833663 56.18069828 -40.31000458 53.11720994 -40.5 48 C-40.31000458 42.88279006 -39.62833663 39.81930172 -36 36 C-31.77906868 32.36803584 -28.64241434 31.55678714 -23.24609375 31.56640625 C-19.64569468 30.65847953 -18.20407816 28.93103727 -16 26 C-15.73738131 23.14660372 -15.69533327 20.866947 -15.9375 18.0625 C-16.41699103 12.15980004 -15.88793566 8.7086448 -12 4 C-7.42788179 0.22303279 -6.24601419 0 0 0 Z " fill="#000000" transform="translate(72,400)"/>
<path d="M0 0 C10.56 0 21.12 0 32 0 C32 13.2 32 26.4 32 40 C21.44 40 10.88 40 0 40 C0 26.8 0 13.6 0 0 Z " fill="#000000" transform="translate(184,344)"/>
<path d="M0 0 C10.56 0 21.12 0 32 0 C32 13.2 32 26.4 32 40 C21.44 40 10.88 40 0 40 C0 26.8 0 13.6 0 0 Z " fill="#000000" transform="translate(136,344)"/>
<path d="M0 0 C10.56 0 21.12 0 32 0 C32 13.2 32 26.4 32 40 C21.44 40 10.88 40 0 40 C0 26.8 0 13.6 0 0 Z " fill="#000000" transform="translate(184,288)"/>
<path d="M0 0 C10.56 0 21.12 0 32 0 C32 13.2 32 26.4 32 40 C21.44 40 10.88 40 0 40 C0 26.8 0 13.6 0 0 Z " fill="#000000" transform="translate(136,288)"/>
<path d="M0 0 C21.12 0 42.24 0 64 0 C64 5.28 64 10.56 64 16 C42.88 16 21.76 16 0 16 C0 10.72 0 5.44 0 0 Z " fill="#000000" transform="translate(328,32)"/>
</svg>
